<svg version="1.2" xmlns="http://www.w3.org/2000/svg" viewBox="0 0 1080 1080" width="1080" height="1080">
	<title>New Project</title>
	<style>
		.s0 { fill: #000000 } 
	</style>
	<path id="24" class="s0" aria-label="24"  d="m477.5 811h-376.9v-108.5q0-34 10.9-59.3 11.6-25.3 36.2-44.9 24.6-20.2 65.1-37.6l85.3-36.9q32.6-13.7 47.8-34 15.9-20.2 15.9-51.3 0-31.9-19.5-52.1-19.6-20.3-57.2-20.3-37.6 0-57.1 21-19.6 21-19.6 56.4h-115q0-49.9 21.7-89.7 21.7-40.5 64.4-63.6 42.7-23.2 105.6-23.2 62.9 0 104.9 22.4 42.7 22.5 64.4 60.1 22.4 37.6 22.4 84.6v8.7q0 60.8-33.3 100.5-33.2 39.1-102.7 69.5l-84.6 36.9q-21.7 9.4-31.1 19.5-8.7 10.1-8.7 27.5v36.2l-28.2-23.9h289.3zm507.8-101.3h-447v-123.7l200.4-318.3 91.8 60.1-171.4 272.7 10.1 15.2h316.1zm-60.7 101.3h-109.2v-380.5h109.2z"/>
</svg>