<svg version="1.2" xmlns="http://www.w3.org/2000/svg" viewBox="0 0 1080 1080" width="1080" height="1080"><style>.a{fill:#fff}</style><path fill-rule="evenodd" class="a" d="m540 1080c-298.6 0-540-241.4-540-540 0-298.6 241.4-540 540-540 298.6 0 540 241.4 540 540 0 298.6-241.4 540-540 540z"/><path  d="m559 485.4l-338.9 338.1c-12.5 12.5-12.5 32.6 0 44.9 12.4 12.3 32.6 12.4 44.9 0l99.2-99c9.9 6.1 20.3 10.8 31.6 13.9 59.4 16.1 151.9 18.4 242.1-41.3 16.2-10.8 7.7-33.7-11.7-33.7h-21.3c-6.8 0-12.3-5.4-12.3-12.1 0-5.5 3.6-10.1 8.7-11.7l129.6-38.8c4.5-1.3 8.5-4.1 11.1-8.1 5.8-8.4 11.4-17 16.7-25.9 8.2-13.6-2-30.5-17.9-30.5h-51.2c-6.8 0-12.2-5.4-12.2-12.1 0-5.5 3.6-10.1 8.6-11.7l107.3-32.2c6.1-1.8 11.2-6.3 13.6-12.3 38.6-97.1 56.2-199 61.6-264.2 1.1-13.1-3.9-26-13.2-35.2-9.3-9.3-22.2-14.3-35.3-13.3-111.2 9-327.4 53.4-448.2 174-106.3 106-107 226-87.7 297.6 2.8 10.5 15.9 12.7 23.6 5l218.2-217.6c8.3-8.2 21.8-8.2 30 0 7.2 7.1 8.1 18 3.1 26.2z"/></svg>